<?xml version="1.0" encoding="utf-8"?>
<!-- Generator: Adobe Illustrator 24.2.0, SVG Export Plug-In . SVG Version: 6.00 Build 0)  -->
<svg version="1.1" id="Layer_1" xmlns="http://www.w3.org/2000/svg" xmlns:xlink="http://www.w3.org/1999/xlink" x="0px" y="0px"
	 viewBox="0 0 896.6 259.2" style="enable-background:new 0 0 896.6 259.2;" xml:space="preserve">
<style type="text/css">
	.st0{fill:#FFFFFF;}
</style>
<path class="st0" d="M579.1,100v98h-33.6v-89.8c0-12.4-12.9-20.6-28.8-20.6c-14.9,0-27.2,7-28.6,18.3h-0.2c0,3.6,0,0.5,0,6.4V198
	h-33.6v-89.8c0-12.4-12.9-20.6-28.8-20.6c-14.9,0-27.2,7-28.7,18.3h-0.2c0,3.1,0,1.2,0,4.5V198H363V61.2h26.9v4.6
	c11.1-5.1,23.3-7.7,35.5-7.6c18,0,34.2,5.2,45.6,13.6c11.4-8.3,27.6-13.6,45.6-13.6c32.3,0,58.9,16.9,62.1,38
	C579,97.4,579.1,98.7,579.1,100z"/>
<path class="st0" d="M822.4,58.1c-42.6,0-74.3,31.2-74.3,71.5s31.7,71.5,74.3,71.5c42.6,0,74.3-31.2,74.3-71.5
	S864.9,58.1,822.4,58.1z M822.4,171.6c-23.4,0-40.6-18.4-40.6-42s17.2-42,40.6-42s40.6,18.4,40.6,42S845.7,171.6,822.4,171.6z"/>
<path class="st0" d="M276.5,58.1c-27.2,0-49.9,12.7-62.8,32.3c-23.9-12.6-52.5-12.3-76.3,0.6c-12.8-20-35.7-32.9-63.1-32.9
	C60,58,45.9,61.8,33.7,69.1l0,0L33.4,69v-7.8H0v198h33.6V195l0,0v-4.9c24.4,14.3,54.5,14.7,79.2,1.2c10.2-5.7,18.8-13.9,25-23.8
	c7.1-11.4,10.7-24.5,10.7-37.9c0-2.7-0.1-5.3-0.4-7.9c15.3-14.2,38.8-14.7,54.6-1.2c-0.4,3-0.5,6.1-0.5,9.1
	c-0.1,13.9,3.9,27.6,11.5,39.2c6.3,9.6,15,17.5,25.1,23c11.6,6.2,24.5,9.4,37.6,9.3c42.5,0,74.3-31.2,74.3-71.5S319,58.1,276.5,58.1
	z M102.2,160.6c-7.5,7.2-17.5,11.1-27.9,11c-23.4,0-40.6-18.4-40.6-42s17.2-42,40.6-42c17.3-0.2,32.7,10.8,38.2,27.2
	c1.6,4.8,2.4,9.8,2.4,14.8C114.8,142,110.1,153,102.2,160.6z M276.5,171.6c-9.8,0.1-19.3-3.4-26.7-9.9c-8.6-7.6-13.9-19.1-13.9-32.1
	c0-5.5,1-11,2.9-16.2c5.8-15.7,20.9-26.1,37.7-25.8c23.4,0,40.6,18.4,40.6,42S299.8,171.6,276.5,171.6L276.5,171.6z"/>
<path class="st0" d="M739,129.6c0-40.3-31.7-71.5-74.3-71.5c-14.3-0.1-28.3,3.7-40.6,11v-4.9l0,0V0h-33.7v198h33.4v-7.8l0.3-0.1l0,0
	c12.3,7.3,26.3,11.1,40.6,11C707.3,201.1,739,169.9,739,129.6z M705.3,129.6c0,23.6-17.2,42-40.6,42s-40.6-18.4-40.6-42
	s17.2-42,40.6-42S705.3,106,705.3,129.6z"/>
</svg>
