<svg id="Layer_1" data-name="Layer 1" xmlns="http://www.w3.org/2000/svg" viewBox="0 0 1160.69 432.48"><defs><style>.cls-1{fill:#4e24d1;}</style></defs><path d="M767.3,557v98H733.66V565.22c0-12.36-12.89-20.62-28.79-20.62-14.9,0-27.16,7-28.65,18.32h-.15c0,3.58,0,.49,0,6.43V655H642.42V565.22c0-12.36-12.89-20.62-28.79-20.62-14.9,0-27.15,7-28.65,18.32h-.15c0,3.1,0,1.19,0,4.51V655H551.18V518.18H578.1l0,4.57a83,83,0,0,1,35.51-7.63c18,0,34.24,5.25,45.64,13.58,11.39-8.32,27.6-13.58,45.6-13.58,32.3,0,58.87,16.9,62.12,38A28.8,28.8,0,0,1,767.3,557Z" transform="translate(-169.36 -456.98)"/><path d="M1010.52,515.12c-42.57,0-74.27,31.15-74.27,71.49s31.7,71.47,74.27,71.47,74.26-31.15,74.26-71.47S1053.07,515.12,1010.52,515.12Zm0,113.49c-23.37,0-40.61-18.37-40.61-42s17.24-42,40.61-42,40.6,18.36,40.6,42S1033.87,628.61,1010.52,628.61Z" transform="translate(-169.36 -456.98)"/><path d="M464.63,515.13c-27.16,0-49.89,12.68-62.78,32.32a80.92,80.92,0,0,0-76.28.57c-12.82-20-35.73-32.89-63.14-32.89a77.76,77.76,0,0,0-40.61,11h0l-.29-.15v-7.78H188.16v198h33.65V652h0v-4.91a80.59,80.59,0,0,0,79.25,1.19,69.91,69.91,0,0,0,25-23.79,70.87,70.87,0,0,0,10.66-37.86,74.16,74.16,0,0,0-.42-7.94,41,41,0,0,1,54.63-1.15,75.6,75.6,0,0,0-.55,9.09,70.68,70.68,0,0,0,11.54,39.22,70,70,0,0,0,25.09,23,78.35,78.35,0,0,0,37.65,9.28c42.55,0,74.25-31.15,74.25-71.48S507.18,515.13,464.63,515.13ZM290.37,617.59a39.75,39.75,0,0,1-27.94,11c-23.36,0-40.61-18.37-40.61-42s17.25-42,40.61-42a39.68,39.68,0,0,1,38.18,27.21,45.34,45.34,0,0,1,2.42,14.8C303,599,298.27,610,290.37,617.59Zm174.26,11a39.88,39.88,0,0,1-26.7-9.87c-8.65-7.62-13.92-19.08-13.92-32.13a45,45,0,0,1,2.93-16.17,39.63,39.63,0,0,1,37.69-25.84c23.35,0,40.59,18.37,40.59,42S488,628.61,464.63,628.61Z" transform="translate(-169.36 -456.98)"/><path d="M927.12,586.6c0-40.33-31.7-71.48-74.26-71.48a77.77,77.77,0,0,0-40.61,11v-4.9h0V457H778.59V655H812v-7.79l.29-.14v0a77.77,77.77,0,0,0,40.61,11C895.42,658.08,927.12,626.93,927.12,586.6Zm-33.66,0c0,23.64-17.24,42-40.6,42s-40.61-18.37-40.61-42,17.25-42,40.61-42S893.46,563,893.46,586.6Z" transform="translate(-169.36 -456.98)"/><path class="cls-1" d="M302.78,813.6c0-43.83-30-66.86-63.79-66.86-37.19,0-69.63,28.3-69.63,71.57,0,42.72,32.17,71,76,71,17.76,0,37.17-4.71,49.93-12.76V845.78c-13.32,9.43-29.4,15.81-46.61,15.81-23,0-41-11.65-45.21-34.4H302A103,103,0,0,0,302.78,813.6Zm-99.31-9.71c4.17-20.53,19.7-29.95,35.24-29.95,15.25,0,30.23,9.42,32.72,29.95Z" transform="translate(-169.36 -456.98)"/><path class="cls-1" d="M573.61,871c-11.37,10.54-26.07,18.31-44.38,18.31-15,0-28-5.27-36.34-14.43s-12.21-21.63-12.21-41.33V749.8h33.57V828c0,12.21,1.94,19.42,6.1,24.14,5,5.82,11.65,7.49,18,7.49,13.32,0,26.35-7.49,35.51-17.76V749.8h33.56V886.28H574.17v-15Z" transform="translate(-169.36 -456.98)"/><path class="cls-1" d="M738.94,879.06c-12.49,6.94-28.3,10.27-42.72,10.27-43.83,0-75.46-30-75.46-70.74,0-42.72,34.4-71.85,77.12-71.85a88.14,88.14,0,0,1,38.84,8.88v32.73c-11.93-7.76-25.25-12.48-38.28-12.48-26.36,0-43.83,18.59-43.83,42.44,0,24.41,18.3,41.61,44.38,41.61,14.42,0,29.13-5,40-13.59Z" transform="translate(-169.36 -456.98)"/><path class="cls-1" d="M878.37,861c-6.65,0-9.42-5.26-9.42-12.76V795.84c0-16.92-5.28-28.57-14.43-36.34-10.27-8.59-26.08-12.76-43.82-12.76-19.43,0-35.23,5-46.05,11.1v30.52a77.11,77.11,0,0,1,41.05-12.21c10.26,0,18,2.22,23,6.65,4.45,4.17,6.66,10.27,6.66,18.59v8.05A114,114,0,0,0,809,806.38c-14.14,0-28,2.51-38.28,9.43a38.61,38.61,0,0,0-17.47,33c0,13.59,5.82,24.41,15.26,31.35,9.15,6.65,20.53,9.14,31.62,9.14,18,0,32.17-6.37,40.5-13h.55c6.39,8.61,16.93,12.49,28,12.49a40.27,40.27,0,0,0,16.64-3.33V859.09A17.65,17.65,0,0,1,878.37,861Zm-43-6.66a48.37,48.37,0,0,1-26.91,8.32c-11.93,0-21.63-5.26-21.63-16.36,0-13.31,13.59-17.76,27.46-17.76a88.11,88.11,0,0,1,21.08,2.77Z" transform="translate(-169.36 -456.98)"/><path class="cls-1" d="M975.36,883c-6.1,3.6-17.2,6.38-27.74,6.38-11.93,0-24.69-3.61-33.29-13.32-6.93-7.49-11.1-18.86-11.1-39.11V778.37H879.38V749.8h23.85V713.46l33.57-5.83V749.8h38.56v28.57H936.8v53.81c0,15.26,2.77,28,18,28,7.21,0,15-2.77,20.53-5.83Z" transform="translate(-169.36 -456.98)"/><path class="cls-1" d="M1010.31,683.78a20.81,20.81,0,1,1-21.09,20.8A21,21,0,0,1,1010.31,683.78Z" transform="translate(-169.36 -456.98)"/><rect class="cls-1" x="824.03" y="292.81" width="33.57" height="136.48"/><path class="cls-1" d="M1117.82,746.74c-42.43,0-74.06,31.08-74.06,71.29s31.63,71.29,74.06,71.29,74.07-31.06,74.07-71.29S1160.27,746.74,1117.82,746.74Zm0,113.18c-23.3,0-40.5-18.31-40.5-41.89s17.2-41.88,40.5-41.88,40.51,18.3,40.51,41.88S1141.13,859.92,1117.82,859.92Z" transform="translate(-169.36 -456.98)"/><path class="cls-1" d="M1330.05,788.68v97.79h-33.58V796.65c0-8.22-5.7-14.63-14.2-18a39.49,39.49,0,0,0-14.59-2.63c-14.9,0-27.16,7-28.65,18.33h-.16c0,3.1,0,1.18,0,4.51v87.6h-33.66V749.61h26.92l0,4.57a83.08,83.08,0,0,1,35.51-7.63,88.86,88.86,0,0,1,14.59,1.19c12.1,2,22.83,6.39,31,12.39h0c9,6.7,15,15.29,16.39,24.64A29.88,29.88,0,0,1,1330.05,788.68Z" transform="translate(-169.36 -456.98)"/><path class="cls-1" d="M391.76,889.46a77.78,77.78,0,0,0,40.62-11v0l.29.14v7.79H466v-198H432.39v64.25h0v4.9a77.78,77.78,0,0,0-40.62-11c-42.55,0-74.25,31.15-74.25,71.47S349.21,889.46,391.76,889.46Zm0-113.48c23.37,0,40.62,18.36,40.62,42s-17.25,42-40.62,42-40.6-18.37-40.6-42S368.41,776,391.76,776Z" transform="translate(-169.36 -456.98)"/></svg>