<svg id="Layer_1" data-name="Layer 1" xmlns="http://www.w3.org/2000/svg" viewBox="0 0 896.61 259.24"><path d="M767.3,557v98H733.66V565.22c0-12.36-12.89-20.62-28.79-20.62-14.9,0-27.16,7-28.65,18.32h-.15c0,3.58,0,.49,0,6.43V655H642.42V565.22c0-12.36-12.89-20.62-28.79-20.62-14.9,0-27.15,7-28.65,18.32h-.15c0,3.1,0,1.19,0,4.51V655H551.18V518.18H578.1l0,4.57a83,83,0,0,1,35.51-7.63c18,0,34.24,5.25,45.64,13.58,11.39-8.32,27.6-13.58,45.6-13.58,32.3,0,58.87,16.9,62.12,38A28.8,28.8,0,0,1,767.3,557Z" transform="translate(-188.16 -456.98)"/><path d="M1010.52,515.12c-42.57,0-74.27,31.15-74.27,71.49s31.7,71.47,74.27,71.47,74.26-31.15,74.26-71.47S1053.07,515.12,1010.52,515.12Zm0,113.49c-23.37,0-40.61-18.37-40.61-42s17.24-42,40.61-42,40.6,18.36,40.6,42S1033.87,628.61,1010.52,628.61Z" transform="translate(-188.16 -456.98)"/><path d="M464.63,515.13c-27.16,0-49.89,12.68-62.78,32.32a80.92,80.92,0,0,0-76.28.57c-12.82-20-35.73-32.89-63.14-32.89a77.76,77.76,0,0,0-40.61,11h0l-.29-.15v-7.78H188.16v198h33.65V652h0v-4.91a80.59,80.59,0,0,0,79.25,1.19,69.91,69.91,0,0,0,25-23.79,70.87,70.87,0,0,0,10.66-37.86,74.16,74.16,0,0,0-.42-7.94,41,41,0,0,1,54.63-1.15,75.6,75.6,0,0,0-.55,9.09,70.68,70.68,0,0,0,11.54,39.22,70,70,0,0,0,25.09,23,78.35,78.35,0,0,0,37.65,9.28c42.55,0,74.25-31.15,74.25-71.48S507.18,515.13,464.63,515.13ZM290.37,617.59a39.75,39.75,0,0,1-27.94,11c-23.36,0-40.61-18.37-40.61-42s17.25-42,40.61-42a39.68,39.68,0,0,1,38.18,27.21,45.34,45.34,0,0,1,2.42,14.8C303,599,298.27,610,290.37,617.59Zm174.26,11a39.88,39.88,0,0,1-26.7-9.87c-8.65-7.62-13.92-19.08-13.92-32.13a45,45,0,0,1,2.93-16.17,39.63,39.63,0,0,1,37.69-25.84c23.35,0,40.59,18.37,40.59,42S488,628.61,464.63,628.61Z" transform="translate(-188.16 -456.98)"/><path d="M927.12,586.6c0-40.33-31.7-71.48-74.26-71.48a77.77,77.77,0,0,0-40.61,11v-4.9h0V457H778.59V655H812v-7.79l.29-.14v0a77.77,77.77,0,0,0,40.61,11C895.42,658.08,927.12,626.93,927.12,586.6Zm-33.66,0c0,23.64-17.24,42-40.6,42s-40.61-18.37-40.61-42,17.25-42,40.61-42S893.46,563,893.46,586.6Z" transform="translate(-188.16 -456.98)"/></svg>